<svg width="973" height="678" viewBox="0 0 973 678" fill="none" xmlns="http://www.w3.org/2000/svg">
<g id="finance/pana">
<g id="background-complete">
<path id="Vector" d="M820.667 112.753C821.675 119.563 820.639 126.519 817.691 132.739C814.743 138.96 810.015 144.166 804.106 147.698C798.198 151.231 791.374 152.93 784.499 152.582C777.623 152.233 771.006 149.852 765.485 145.741C759.964 141.629 755.787 135.972 753.483 129.485C751.179 122.998 750.851 115.973 752.542 109.3C754.233 102.627 757.866 96.6059 762.981 91.9988C768.096 87.3917 774.463 84.406 781.276 83.4197C790.387 82.1008 799.65 84.4477 807.033 89.9461C814.417 95.4446 819.32 103.646 820.667 112.753Z" fill="#F5F5F5"/>
<path id="Vector_2" d="M812.493 113.941C813.262 119.13 812.473 124.43 810.228 129.17C807.983 133.911 804.381 137.879 799.88 140.571C795.379 143.264 790.18 144.561 784.941 144.298C779.703 144.034 774.66 142.223 770.451 139.092C766.243 135.962 763.058 131.653 761.299 126.711C759.54 121.77 759.287 116.417 760.572 111.332C761.857 106.246 764.621 101.656 768.516 98.1428C772.41 94.6291 777.259 92.3499 782.45 91.5936C789.397 90.5735 796.465 92.3549 802.1 96.5458C807.734 100.737 811.472 106.994 812.493 113.941Z" fill="#EBEBEB"/>
<path id="Vector_3" d="M812.363 113.115C811.874 112.143 811.485 111.123 811.204 110.072C809.548 105.432 806.662 101.329 802.856 98.2023C801.086 96.7676 799.137 95.5692 797.059 94.6371C795.944 94.1188 794.791 93.6876 793.609 93.3472C792.379 92.9898 791.125 92.7233 789.856 92.5501C788.544 92.3774 787.222 92.2999 785.899 92.3183C784.534 92.3608 783.173 92.4964 781.827 92.7241C780.484 92.9678 779.162 93.3117 777.87 93.753C776.612 94.1782 775.39 94.7066 774.218 95.3328C773.085 95.9285 771.999 96.6117 770.972 97.3762C769.979 98.0943 769.044 98.889 768.175 99.753C766.548 101.351 765.135 103.154 763.972 105.115C762.96 106.832 762.138 108.655 761.522 110.55C760.647 113.321 760.202 116.21 760.204 119.115C760.318 120.199 760.318 121.292 760.204 122.376C759.724 121.371 759.467 120.273 759.45 119.159C759.133 116.135 759.379 113.079 760.175 110.144C761.375 105.735 763.679 101.705 766.87 98.4342C767.77 97.4935 768.739 96.6215 769.769 95.8255C772.006 94.1142 774.501 92.7689 777.16 91.84C778.553 91.3697 779.976 90.9968 781.421 90.7241C782.858 90.48 784.311 90.3396 785.769 90.3038C787.199 90.2824 788.629 90.3793 790.044 90.5936C791.415 90.7831 792.768 91.0885 794.088 91.5067C795.351 91.8913 796.582 92.3759 797.769 92.9559C799.97 94.0015 802.017 95.3424 803.856 96.9414C805.474 98.3275 806.923 99.8987 808.175 101.623C809.937 104.104 811.224 106.89 811.972 109.84C812.333 110.892 812.466 112.008 812.363 113.115Z" fill="#E0E0E0"/>
<path id="Vector_4" d="M791.508 132.956L792.232 137.521L788.16 138.173L787.45 133.739C783.812 134.183 780.122 133.601 776.798 132.057L778.247 126.739C780.842 127.993 783.719 128.552 786.595 128.362L785.508 121.565C780.812 121.188 775.537 120.492 774.595 114.666C773.914 110.318 776.45 106.159 782.754 104.391L782.044 99.869L786.102 99.2168L786.812 103.666C789.762 103.352 792.744 103.749 795.508 104.825L794.276 110.144C792.181 109.348 789.951 108.969 787.711 109.028L788.812 115.956C793.508 116.289 798.711 116.999 799.624 122.739C800.276 127.014 797.769 131.173 791.508 132.956ZM784.551 115.565L783.624 109.768C781.551 110.594 780.885 111.912 781.102 113.26C781.319 114.608 782.667 115.347 784.551 115.623V115.565ZM793.117 124.26C792.899 122.811 791.595 122.246 789.74 121.912L790.638 127.536C792.595 126.811 793.334 125.623 793.117 124.318V124.26Z" fill="#E0E0E0"/>
<path id="Vector_5" d="M712.32 118.912C714.065 130.729 712.266 142.798 707.15 153.591C702.033 164.385 693.829 173.417 683.576 179.546C673.324 185.675 661.483 188.624 649.554 188.02C637.624 187.416 626.142 183.286 616.561 176.154C606.979 169.021 599.73 159.206 595.729 147.951C591.729 136.696 591.157 124.507 594.088 112.927C597.018 101.347 603.318 90.8974 612.19 82.8997C621.062 74.9021 632.108 69.7165 643.928 67.9994C659.749 65.6819 675.842 69.7439 688.668 79.2919C701.494 88.84 710.002 103.092 712.32 118.912Z" fill="#F5F5F5"/>
<path id="Vector_6" d="M698.102 120.97C699.431 129.973 698.06 139.167 694.162 147.391C690.264 155.614 684.015 162.496 676.205 167.166C668.395 171.837 659.375 174.086 650.286 173.63C641.198 173.173 632.449 170.031 625.146 164.601C617.844 159.17 612.316 151.696 609.263 143.124C606.209 134.551 605.766 125.266 607.991 116.442C610.216 107.618 615.008 99.6521 621.761 93.5521C628.514 87.4522 636.924 83.4923 645.928 82.1733C651.902 81.2906 657.991 81.5942 663.848 83.0668C669.704 84.5394 675.213 87.1521 680.058 90.7555C684.904 94.3588 688.992 98.8822 692.088 104.067C695.184 109.251 697.228 114.995 698.102 120.97Z" fill="#EBEBEB"/>
<path id="Vector_7" d="M697.885 119.55C697.609 119.55 697.131 117.637 695.885 114.246C694.163 109.503 691.718 105.054 688.638 101.057C686.5 98.3361 684.07 95.8575 681.392 93.6661C678.322 91.1755 674.947 89.0862 671.348 87.4487C669.406 86.5628 667.4 85.8217 665.349 85.2313C663.22 84.5798 661.045 84.0953 658.841 83.7821C656.56 83.4711 654.259 83.3355 651.957 83.3763C647.207 83.4525 642.5 84.2892 638.015 85.8545C635.847 86.6232 633.744 87.5633 631.725 88.6661C629.76 89.7012 627.875 90.8833 626.088 92.2023C624.369 93.4681 622.742 94.8531 621.218 96.3473C618.414 99.1256 615.979 102.253 613.972 105.652C612.219 108.634 610.795 111.797 609.725 115.086C608.204 119.901 607.432 124.921 607.435 129.97C607.435 133.565 607.667 135.579 607.435 135.623C607.204 135.666 606.551 133.724 606.117 130.043C605.561 124.788 605.989 119.475 607.377 114.376C609.437 106.73 613.43 99.7429 618.972 94.0864C620.56 92.4324 622.281 90.9104 624.117 89.5357C625.991 88.1017 627.973 86.8129 630.044 85.6806C632.227 84.489 634.506 83.4807 636.856 82.6661C639.272 81.8308 641.748 81.1768 644.262 80.7096C646.781 80.2806 649.329 80.0432 651.885 79.9994C654.367 79.96 656.848 80.1199 659.305 80.4777C661.676 80.8193 664.017 81.3475 666.305 82.0574C668.494 82.7284 670.631 83.5616 672.696 84.5502C676.519 86.3727 680.077 88.7029 683.276 91.4777C686.033 93.8941 688.495 96.628 690.609 99.6226C693.675 103.925 695.911 108.761 697.204 113.883C698.073 117.463 698.088 119.521 697.885 119.55Z" fill="#E0E0E0"/>
<path id="Vector_8" d="M661.682 153.999L662.943 161.912L655.885 163.028L654.653 155.333C647.595 156.028 640.522 154.912 636.16 152.434L638.653 143.188C643.152 145.39 648.145 146.389 653.146 146.086L651.247 134.289C643.102 133.637 633.928 132.42 632.305 122.318C631.117 114.826 635.522 107.536 646.479 104.478L645.218 96.6371L652.29 95.5067L653.522 103.202C658.621 102.675 663.772 103.365 668.551 105.217L666.508 114.478C662.878 113.077 659.006 112.412 655.117 112.521L657.03 124.536C665.174 125.115 674.203 126.347 675.798 136.304C676.899 143.652 672.551 150.898 661.682 153.999ZM649.609 123.898L648.015 113.869C644.406 115.318 643.247 117.608 643.667 119.941C644.088 122.275 646.348 123.362 649.609 123.898ZM664.493 138.985C664.102 136.507 661.827 135.492 658.624 134.912L660.189 144.666C663.609 143.333 664.856 141.246 664.493 138.985Z" fill="#E0E0E0"/>
<path id="Vector_9" d="M178.638 324.463C179.648 331.273 178.615 338.228 175.669 344.45C172.723 350.672 167.998 355.879 162.091 359.414C156.183 362.948 149.36 364.65 142.485 364.304C135.61 363.959 128.992 361.581 123.469 357.472C117.947 353.363 113.767 347.707 111.46 341.221C109.154 334.736 108.823 327.711 110.511 321.037C112.199 314.364 115.829 308.341 120.942 303.732C126.055 299.122 132.42 296.134 139.233 295.144C148.344 293.821 157.608 296.164 164.995 301.66C172.381 307.156 177.288 315.356 178.638 324.463Z" fill="#F5F5F5"/>
<path id="Vector_10" d="M170.45 325.652C171.219 330.841 170.43 336.142 168.185 340.883C165.939 345.624 162.337 349.592 157.835 352.285C153.333 354.977 148.133 356.274 142.894 356.01C137.655 355.746 132.612 353.933 128.403 350.801C124.195 347.669 121.01 343.359 119.253 338.416C117.496 333.473 117.245 328.12 118.531 323.034C119.818 317.949 122.585 313.359 126.482 309.847C130.378 306.334 135.229 304.057 140.421 303.304C147.365 302.292 154.428 304.077 160.058 308.267C165.688 312.456 169.425 318.709 170.45 325.652Z" fill="#EBEBEB"/>
<path id="Vector_11" d="M170.319 324.811C169.83 323.835 169.447 322.81 169.174 321.753C168.175 319.02 166.757 316.458 164.972 314.159C163.745 312.591 162.35 311.162 160.812 309.898C159.043 308.459 157.094 307.255 155.015 306.318C153.901 305.802 152.748 305.376 151.566 305.043C150.338 304.677 149.083 304.411 147.812 304.246C146.501 304.066 145.179 303.988 143.856 304.014C142.49 304.044 141.129 304.175 139.783 304.405C135.853 305.094 132.137 306.686 128.928 309.057C127.938 309.785 127.003 310.584 126.131 311.449C124.504 313.042 123.092 314.839 121.928 316.797C120.919 318.515 120.097 320.337 119.479 322.231C118.603 325.007 118.158 327.9 118.16 330.811C118.283 331.895 118.283 332.988 118.16 334.072C117.683 333.065 117.426 331.968 117.406 330.854C117.088 327.826 117.334 324.765 118.131 321.826C118.689 319.807 119.482 317.862 120.493 316.028C121.681 313.913 123.143 311.964 124.841 310.231C125.736 309.282 126.706 308.404 127.74 307.608C129.987 305.916 132.48 304.577 135.131 303.637C136.526 303.153 137.955 302.776 139.406 302.507C140.844 302.266 142.297 302.13 143.754 302.101C145.208 302.079 146.662 302.171 148.102 302.376C149.467 302.573 150.815 302.878 152.131 303.289C153.392 303.68 154.623 304.165 155.812 304.739C159.945 306.697 163.501 309.693 166.131 313.434C167.893 315.915 169.181 318.701 169.928 321.652C170.271 322.667 170.404 323.742 170.319 324.811Z" fill="#E0E0E0"/>
<path id="Vector_12" d="M149.464 344.681L150.189 349.231L146.117 349.883L145.406 345.449C141.774 345.918 138.082 345.356 134.754 343.826L136.204 338.492C138.801 339.755 141.684 340.315 144.566 340.115L143.464 333.318C138.783 332.956 133.493 332.26 132.566 326.434C131.87 322.086 134.406 317.912 140.725 316.159L140.001 311.637L144.073 310.985L144.783 315.42C147.733 315.104 150.715 315.501 153.479 316.579L152.247 321.912C150.156 321.101 147.923 320.722 145.682 320.797L146.783 327.71C151.479 328.043 156.682 328.753 157.595 334.492C158.233 338.724 155.725 342.884 149.464 344.681ZM142.508 327.289L141.58 321.492C139.508 322.333 138.841 323.637 139.059 324.985C139.276 326.333 140.624 327.057 142.508 327.347V327.289ZM151.088 335.985C150.856 334.536 149.551 333.985 147.696 333.652L148.595 339.26C150.566 338.536 151.29 337.333 151.088 336.028V335.985Z" fill="#E0E0E0"/>
<path id="Vector_13" d="M119.059 247.912C115.278 250.311 110.871 251.534 106.396 251.426C101.92 251.318 97.5771 249.885 93.9164 247.308C90.2556 244.731 87.4418 241.126 85.831 236.949C84.2203 232.772 83.8851 228.211 84.8679 223.843C85.8507 219.475 88.1072 215.497 91.3519 212.413C94.5966 209.328 98.6835 207.276 103.095 206.515C107.507 205.754 112.045 206.32 116.136 208.14C120.226 209.96 123.684 212.952 126.073 216.739C127.659 219.246 128.736 222.041 129.242 224.965C129.748 227.889 129.674 230.883 129.022 233.778C128.371 236.673 127.156 239.411 125.446 241.836C123.737 244.261 121.566 246.326 119.059 247.912Z" fill="#F5F5F5"/>
<path id="Vector_14" d="M116.175 243.362C113.291 245.187 109.932 246.117 106.52 246.032C103.109 245.948 99.7991 244.853 97.01 242.887C94.221 240.92 92.078 238.171 90.8523 234.986C89.6265 231.801 89.3731 228.324 90.1241 224.996C90.8752 221.667 92.5968 218.636 95.0713 216.286C97.5457 213.936 100.662 212.373 104.025 211.794C107.388 211.216 110.847 211.648 113.964 213.037C117.082 214.425 119.717 216.707 121.537 219.594C123.977 223.457 124.783 228.131 123.777 232.588C122.771 237.045 120.037 240.92 116.175 243.362Z" fill="#EBEBEB"/>
<path id="Vector_15" d="M116.638 243.072C116.638 242.985 117.175 242.521 118.088 241.623C119.452 240.308 120.601 238.787 121.493 237.115C122.816 234.661 123.513 231.918 123.522 229.13C123.538 228.33 123.49 227.53 123.377 226.739C123.266 225.915 123.092 225.101 122.856 224.304C122.614 223.475 122.308 222.666 121.943 221.883C121.191 220.285 120.188 218.817 118.972 217.536C118.389 216.904 117.754 216.322 117.073 215.797C116.422 215.258 115.729 214.774 115.001 214.347C114.327 213.914 113.619 213.536 112.885 213.217C111.488 212.669 110.027 212.303 108.537 212.13C107.25 212 105.954 212 104.667 212.13C102.786 212.325 100.947 212.814 99.218 213.579C98.5949 213.923 97.9396 214.204 97.2615 214.42C97.2615 214.42 97.7832 213.826 98.9861 213.115C100.699 212.128 102.582 211.469 104.537 211.173C105.893 210.956 107.27 210.903 108.638 211.014C110.22 211.149 111.775 211.5 113.261 212.057C114.071 212.352 114.857 212.71 115.609 213.13C116.396 213.552 117.147 214.036 117.856 214.579C119.351 215.738 120.652 217.128 121.711 218.695C122.258 219.492 122.743 220.33 123.16 221.202C123.549 222.046 123.874 222.918 124.131 223.811C124.373 224.675 124.547 225.557 124.653 226.449C124.763 227.304 124.802 228.167 124.769 229.028C124.729 230.611 124.475 232.181 124.015 233.695C123.606 235.009 123.042 236.269 122.334 237.449C121.326 239.156 120.009 240.66 118.45 241.883C117.935 242.401 117.318 242.806 116.638 243.072Z" fill="#E0E0E0"/>
<path id="Vector_16" d="M99.3339 235.912L96.8122 237.55L95.3629 235.304L97.8122 233.71C96.5679 231.674 95.9295 229.327 95.9716 226.941L99.5078 226.391C99.4474 228.27 99.8769 230.133 100.754 231.797L104.508 229.347C103.493 226.449 102.508 223.13 105.725 221.043C108.102 219.492 111.276 219.883 113.986 223.173L116.479 221.55L117.928 223.797L115.479 225.391C116.437 227.055 116.989 228.922 117.088 230.84L113.58 231.521C113.511 230.064 113.152 228.635 112.522 227.318L108.696 229.811C109.74 232.71 110.696 235.97 107.522 238.028C105.189 239.55 102.044 239.159 99.3339 235.912ZM107.798 227.217L110.986 225.13C109.943 224.115 108.986 224.072 108.247 224.55C107.508 225.028 107.464 225.999 107.798 227.202V227.217ZM104.899 234.608C105.682 234.086 105.682 233.159 105.392 231.97L102.29 233.999C103.276 234.956 104.189 235.057 104.899 234.594V234.608Z" fill="#E0E0E0"/>
<path id="Vector_17" d="M725.928 61.2458C722.148 63.6441 717.741 64.8669 713.265 64.7593C708.79 64.6518 704.447 63.2188 700.786 60.6417C697.125 58.0646 694.311 54.4593 692.701 50.2822C691.09 46.1051 690.755 41.5441 691.737 37.1764C692.72 32.8087 694.977 28.8308 698.221 25.7462C701.466 22.6616 705.553 20.6091 709.965 19.8484C714.377 19.0878 718.915 19.6532 723.005 21.4731C727.096 23.2929 730.554 26.2855 732.943 30.0719C734.531 32.5788 735.609 35.3742 736.116 38.2983C736.623 41.2223 736.549 44.2176 735.898 47.1129C735.246 50.0082 734.03 52.7467 732.32 55.1717C730.609 57.5968 728.437 59.6608 725.928 61.2458Z" fill="#F5F5F5"/>
<path id="Vector_18" d="M723.03 56.6951C720.148 58.5247 716.788 59.4579 713.375 59.3766C709.963 59.2954 706.651 58.2033 703.86 56.2386C701.068 54.2739 698.923 51.525 697.694 48.3401C696.466 45.1551 696.211 41.6773 696.961 38.3472C697.71 35.017 699.432 31.9842 701.906 29.6329C704.381 27.2815 707.497 25.7174 710.861 25.1385C714.226 24.5597 717.686 24.9922 720.804 26.3812C723.922 27.7703 726.558 30.0534 728.378 32.9414C730.818 36.8006 731.626 41.4711 730.623 45.9258C729.62 50.3804 726.889 54.2542 723.03 56.6951Z" fill="#EBEBEB"/>
<path id="Vector_19" d="M723.465 56.4052C723.465 56.3183 724.001 55.8545 724.914 54.9559C726.278 53.6412 727.427 52.1202 728.32 50.4487C728.941 49.3113 729.428 48.1051 729.769 46.8545C730.153 45.4364 730.357 43.9757 730.378 42.5067C730.405 41.6792 730.371 40.8509 730.276 40.0284C730.165 39.2047 729.99 38.3907 729.754 37.5936C729.516 36.7635 729.211 35.954 728.841 35.1733C728.466 34.3684 728.03 33.5932 727.537 32.8545C727.052 32.1252 726.515 31.4325 725.928 30.782C725.341 30.145 724.701 29.5584 724.015 29.0284C723.367 28.4871 722.674 28.0022 721.943 27.5791C721.249 27.1791 720.528 26.8303 719.783 26.5357C718.389 25.9854 716.926 25.6247 715.436 25.4632C714.15 25.3184 712.852 25.3184 711.566 25.4632C709.685 25.6587 707.846 26.1477 706.117 26.9125C705.498 27.2639 704.841 27.5458 704.16 27.753C704.16 27.753 704.682 27.1588 705.885 26.4487C707.603 25.4862 709.485 24.8522 711.436 24.5791C712.791 24.3603 714.169 24.3116 715.537 24.4342C717.118 24.5637 718.674 24.9099 720.16 25.4632C720.97 25.7574 721.755 26.116 722.508 26.5357C724.12 27.4234 725.586 28.5524 726.856 29.8835C727.496 30.5615 728.082 31.2884 728.609 32.0574C729.156 32.8547 729.641 33.693 730.059 34.5646C730.443 35.4087 730.763 36.2808 731.015 37.1733C731.264 38.0361 731.439 38.9185 731.537 39.811C731.647 40.6662 731.686 41.5291 731.653 42.3907C731.613 43.9731 731.36 45.5429 730.899 47.0574C730.488 48.4025 729.914 49.6922 729.189 50.898C728.177 52.5724 726.865 54.0463 725.32 55.2458C724.787 55.7553 724.156 56.15 723.465 56.4052Z" fill="#E0E0E0"/>
<path id="Vector_20" d="M706.16 49.2458L703.638 50.898L702.189 48.6516L704.638 47.0574C703.378 45.0212 702.719 42.6696 702.74 40.2748L706.276 39.7241C706.222 41.603 706.651 43.4642 707.522 45.1299L711.276 42.6806C710.261 39.782 709.276 36.4632 712.493 34.3762C714.87 32.8255 718.044 33.2168 720.754 36.5067L723.305 34.956L724.754 37.2023L722.305 38.7965C723.26 40.4667 723.806 42.3388 723.899 44.2603L720.406 44.927C720.328 43.4739 719.963 42.0507 719.334 40.7386L715.508 43.2168C716.551 46.1154 717.508 49.3762 714.334 51.4342C712.015 52.8835 708.885 52.4922 706.16 49.2458ZM714.624 40.5502L717.812 38.4777C716.769 37.4487 715.812 37.4052 715.073 37.8835C714.334 38.3618 714.334 39.3038 714.624 40.5357V40.5502ZM711.725 47.9415C712.508 47.4197 712.508 46.4922 712.218 45.3183L709.117 47.3328C710.102 48.2748 711.001 48.3907 711.725 47.9994V47.9415Z" fill="#E0E0E0"/>
</g>
<g id="Floor">
<path id="Vector_21" d="M972.682 657.217C972.682 657.42 755.131 657.594 486.827 657.594C218.522 657.594 0.913696 657.42 0.913696 657.217C0.913696 657.014 218.421 656.84 486.827 656.84C755.233 656.84 972.682 656.999 972.682 657.217Z" fill="#263238"/>
</g>
<g id="Device">
<path id="Vector_22" d="M912.885 170.666H361.117C358.854 170.666 356.614 171.112 354.524 171.978C352.435 172.844 350.536 174.114 348.937 175.714C347.338 177.314 346.07 179.214 345.206 181.305C344.341 183.395 343.897 185.636 343.899 187.898V577.623C343.899 582.189 345.713 586.568 348.942 589.797C352.171 593.026 356.55 594.84 361.117 594.84H572.885C572.885 594.84 586.363 636.492 544.595 658.057H742.609C742.609 658.057 695.493 641.884 707.58 594.84H912.885C917.451 594.84 921.83 593.026 925.059 589.797C928.288 586.568 930.102 582.189 930.102 577.623V187.898C930.104 185.636 929.66 183.395 928.796 181.305C927.931 179.214 926.663 177.314 925.064 175.714C923.465 174.114 921.567 172.844 919.477 171.978C917.387 171.112 915.147 170.666 912.885 170.666Z" fill="#263238"/>
<path id="Vector_23" d="M644.363 553.797C651.87 564.521 640.131 576.275 629.392 568.768C629.035 568.515 628.726 568.201 628.479 567.84C620.986 557.115 632.725 545.391 643.45 552.883C643.803 553.135 644.111 553.444 644.363 553.797Z" fill="#455A64"/>
<path id="Vector_24" d="M367.45 177.811H906.58C910.309 177.811 913.885 179.292 916.521 181.929C919.157 184.565 920.638 188.141 920.638 191.869V523.55H353.464V191.869C353.464 188.153 354.936 184.588 357.556 181.954C360.177 179.32 363.734 177.83 367.45 177.811Z" fill="white"/>
<path id="Vector_25" d="M420.059 255.854H401.45V463.623H420.059V255.854Z" fill="#6B26D9"/>
<path id="Vector_26" d="M455.972 326.42H437.363V463.623H455.972V326.42Z" fill="#6B26D9"/>
<path id="Vector_27" d="M491.885 281.681H473.276V464.681H491.885V281.681Z" fill="#6B26D9"/>
<path id="Vector_28" d="M527.812 263.883H509.204V463.623H527.812V263.883Z" fill="#6B26D9"/>
<path id="Vector_29" d="M563.725 330.652H545.117V463.623H563.725V330.652Z" fill="#6B26D9"/>
<path id="Vector_30" d="M599.638 356.724H581.03V463.623H599.638V356.724Z" fill="#6B26D9"/>
<path id="Vector_31" d="M635.551 277.188H616.943V463.623H635.551V277.188Z" fill="#6B26D9"/>
<path id="Vector_32" d="M671.464 310.797H652.856V463.623H671.464V310.797Z" fill="#6B26D9"/>
<path id="Vector_33" d="M707.392 283.941H688.783V463.623H707.392V283.941Z" fill="#6B26D9"/>
<path id="Vector_34" d="M743.305 341.202H724.696V463.623H743.305V341.202Z" fill="#6B26D9"/>
<path id="Vector_35" d="M814.943 277.188H796.334V463.623H814.943V277.188Z" fill="#6B26D9"/>
<path id="Vector_36" d="M891.218 397.144H872.609V460.941H891.218V397.144Z" fill="#6B26D9"/>
<path id="Vector_37" d="M854.03 341.202H835.421V463.623H854.03V341.202Z" fill="#6B26D9"/>
<path id="Vector_38" d="M779.218 317.912H760.609V463.623H779.218V317.912Z" fill="#6B26D9"/>
<path id="Vector_39" d="M896.435 282.347C895.889 282.299 895.346 282.212 894.812 282.086L890.073 281.115C887.517 280.569 884.934 280.157 882.334 279.883C878.802 279.39 875.246 279.095 871.682 278.999C861.907 278.673 852.128 279.509 842.551 281.492C829.893 284.208 817.717 288.821 806.435 295.173C792.765 302.874 780.412 312.708 769.841 324.304C758.45 336.797 748.841 352.231 739.015 368.565C729.189 384.898 718.986 402.434 704.363 417.565C697.049 425.383 688.408 431.846 678.841 436.652C673.876 439.062 668.566 440.686 663.102 441.463C657.549 442.203 651.911 442.012 646.421 440.898C635.378 438.463 625.595 432.666 617.363 425.666C609.289 418.71 602.065 410.825 595.841 402.173C583.348 385.362 574.479 367.246 564.986 350.739C555.493 334.231 545.972 318.695 534.16 306.594C528.567 300.701 522.147 295.654 515.102 291.608C511.791 289.698 508.347 288.027 504.798 286.608C501.367 285.341 497.857 284.301 494.291 283.492C481.675 280.612 468.536 280.981 456.102 284.565C446.711 287.251 437.846 291.515 429.885 297.173C424.907 300.834 420.296 304.969 416.117 309.521L412.885 313.101C412.531 313.528 412.144 313.926 411.725 314.289C412.009 313.818 412.339 313.376 412.711 312.97L415.769 309.202C419.851 304.504 424.412 300.245 429.378 296.492C437.35 290.653 446.274 286.24 455.754 283.449C468.361 279.662 481.727 279.163 494.58 281.999C508.885 284.898 523.464 293.072 535.363 305.333C547.262 317.594 557.175 333.144 566.624 349.724C576.073 366.304 585.088 384.318 597.45 400.912C603.59 409.446 610.711 417.229 618.667 424.101C626.725 430.956 636.233 436.55 646.812 438.883C652.06 439.941 657.447 440.122 662.754 439.42C668.01 438.666 673.118 437.106 677.899 434.797C687.269 430.092 695.733 423.768 702.899 416.115C717.319 401.289 727.406 383.782 737.378 367.565C747.349 351.347 756.972 335.681 768.566 323.13C779.313 311.467 791.852 301.594 805.711 293.883C817.153 287.536 829.499 282.976 842.319 280.362C851.991 278.438 861.862 277.708 871.711 278.188C875.299 278.335 878.876 278.698 882.421 279.275C885.027 279.602 887.612 280.086 890.16 280.724L894.856 281.898C895.393 282.006 895.922 282.156 896.435 282.347Z" fill="#263238"/>
<path id="Vector_40" d="M381.001 478.101C380.58 478.101 380.233 418.855 380.233 345.782C380.233 272.71 380.58 213.463 381.001 213.463C381.421 213.463 381.769 272.695 381.769 345.782C381.769 418.869 381.392 478.101 381.001 478.101Z" fill="#263238"/>
<path id="Vector_41" d="M891.146 478.101C891.146 478.521 779.551 478.855 641.87 478.855C504.189 478.855 392.595 478.521 392.595 478.101C392.595 477.681 504.189 477.333 641.87 477.333C779.551 477.333 891.146 477.681 891.146 478.101Z" fill="#263238"/>
<path id="Vector_42" d="M427.986 494.449C427.986 494.869 421.812 495.217 414.189 495.217C406.566 495.217 400.377 494.869 400.377 494.449C400.377 494.028 406.551 493.681 414.189 493.681C421.827 493.681 427.986 494.028 427.986 494.449Z" fill="#263238"/>
<path id="Vector_43" d="M473.754 495.275C473.754 495.71 466.363 496.043 457.261 496.043C448.16 496.043 440.754 495.71 440.754 495.275C440.754 494.84 448.146 494.521 457.261 494.521C466.377 494.521 473.754 494.854 473.754 495.275Z" fill="#263238"/>
<path id="Vector_44" d="M512.885 495.275C512.885 495.71 505.493 496.043 496.392 496.043C487.291 496.043 479.885 495.71 479.885 495.275C479.885 494.84 487.276 494.521 496.392 494.521C505.508 494.521 512.885 494.854 512.885 495.275Z" fill="#263238"/>
<path id="Vector_45" d="M551.899 495.275C551.899 495.71 544.508 496.043 535.406 496.043C526.305 496.043 518.899 495.71 518.899 495.275C518.899 494.84 526.29 494.521 535.406 494.521C544.522 494.521 551.899 494.854 551.899 495.275Z" fill="#263238"/>
<path id="Vector_46" d="M590.957 495.275C590.957 495.71 583.58 496.043 574.464 496.043C565.348 496.043 557.957 495.71 557.957 495.275C557.957 494.84 565.348 494.521 574.464 494.521C583.58 494.521 590.957 494.854 590.957 495.275Z" fill="#263238"/>
<path id="Vector_47" d="M630.03 495.275C630.03 495.71 622.638 496.043 613.523 496.043C604.407 496.043 597.03 495.71 597.03 495.275C597.03 494.84 604.407 494.521 613.523 494.521C622.638 494.521 630.03 494.854 630.03 495.275Z" fill="#263238"/>
<path id="Vector_48" d="M669.088 495.275C669.088 495.71 661.696 496.043 652.58 496.043C643.464 496.043 636.088 495.71 636.088 495.275C636.088 494.84 643.464 494.521 652.58 494.521C661.696 494.521 669.088 494.854 669.088 495.275Z" fill="#263238"/>
<path id="Vector_49" d="M708.145 495.275C708.145 495.71 700.754 496.043 691.638 496.043C682.522 496.043 675.146 495.71 675.146 495.275C675.146 494.84 682.537 494.521 691.638 494.521C700.74 494.521 708.145 494.854 708.145 495.275Z" fill="#263238"/>
<path id="Vector_50" d="M747.204 495.275C747.204 495.71 739.812 496.043 730.711 496.043C721.609 496.043 714.204 495.71 714.204 495.275C714.204 494.84 721.595 494.521 730.711 494.521C739.827 494.521 747.204 494.854 747.204 495.275Z" fill="#263238"/>
<path id="Vector_51" d="M786.262 495.275C786.262 495.71 778.87 496.043 769.769 496.043C760.667 496.043 753.261 495.71 753.261 495.275C753.261 494.84 760.653 494.521 769.769 494.521C778.885 494.521 786.262 494.854 786.262 495.275Z" fill="#263238"/>
<path id="Vector_52" d="M822.595 495.289C822.595 495.724 815.204 496.057 806.088 496.057C796.972 496.057 789.595 495.724 789.595 495.289C789.595 494.855 796.986 494.536 806.088 494.536C815.189 494.536 822.595 494.869 822.595 495.289Z" fill="#263238"/>
<path id="Vector_53" d="M858.928 495.304C858.928 495.724 851.537 496.072 842.421 496.072C833.305 496.072 825.928 495.724 825.928 495.304C825.928 494.884 833.305 494.55 842.421 494.55C851.537 494.55 858.928 494.884 858.928 495.304Z" fill="#263238"/>
<path id="Vector_54" d="M895.247 495.318C895.247 495.739 887.856 496.086 878.754 496.086C869.653 496.086 862.247 495.739 862.247 495.318C862.247 494.898 869.638 494.55 878.754 494.55C887.87 494.55 895.247 494.898 895.247 495.318Z" fill="#263238"/>
<path id="Vector_55" d="M570.856 352.594C570.856 352.275 573.145 353.072 573.87 356.188C574.334 357.986 574.128 359.892 573.29 361.55C572.726 362.642 571.751 363.466 570.58 363.84C569.31 364.197 567.949 364.035 566.798 363.391C565.755 362.808 564.898 361.942 564.326 360.893C563.754 359.845 563.491 358.655 563.566 357.463C563.634 356.525 563.9 355.613 564.347 354.786C564.795 353.959 565.413 353.236 566.16 352.666C566.65 352.266 567.223 351.98 567.837 351.83C568.451 351.679 569.091 351.668 569.711 351.797C570.58 352.057 570.87 352.478 570.812 352.565C570.754 352.652 568.928 351.985 567.102 353.797C566.099 354.787 565.517 356.127 565.479 357.536C565.472 358.351 565.682 359.154 566.087 359.861C566.492 360.569 567.077 361.157 567.783 361.565C568.099 361.761 568.451 361.892 568.818 361.949C569.186 362.006 569.561 361.987 569.921 361.895C570.281 361.803 570.619 361.639 570.914 361.413C571.21 361.187 571.456 360.903 571.638 360.579C572.33 359.32 572.604 357.874 572.421 356.449C572.174 353.797 570.696 352.84 570.856 352.594Z" fill="#263238"/>
<path id="Vector_56" d="M815.696 284.231C815.696 284.115 816.291 283.927 817.32 284.231C818.74 284.763 819.92 285.793 820.638 287.13C821.213 288.103 821.582 289.184 821.722 290.306C821.862 291.428 821.769 292.567 821.45 293.652C821.073 295.068 820.251 296.327 819.106 297.243C817.961 298.158 816.553 298.682 815.088 298.739C814.302 298.703 813.533 298.496 812.834 298.133C812.136 297.77 811.525 297.26 811.044 296.637C810.2 295.579 809.614 294.338 809.334 293.014C809.056 291.92 809.005 290.781 809.185 289.667C809.364 288.553 809.77 287.487 810.378 286.536C812.667 283.304 815.493 283.463 815.392 283.637C815.522 283.941 813.16 284.391 811.638 287.217C810.832 288.852 810.672 290.73 811.189 292.478C811.682 294.391 813.16 296.579 815.16 296.594C816.182 296.51 817.156 296.122 817.954 295.478C818.753 294.835 819.34 293.966 819.638 292.985C820.205 291.266 820.096 289.395 819.334 287.753C818.566 286.193 817.28 284.949 815.696 284.231Z" fill="#263238"/>
<path id="Vector_57" d="M604.609 72.3617H231.262V362.927H604.609V72.3617Z" fill="white"/>
<path id="Vector_58" d="M604.609 362.927C604.609 360.028 604.479 247.71 604.262 72.3617L604.609 72.7096H231.305L231.725 72.2893C231.725 177.028 231.725 276.086 231.725 362.854L231.349 362.478L604.696 362.854L231.349 363.231H230.972V362.854C230.972 276.086 230.972 177.028 230.972 72.2893V71.869H231.435H604.74H605.088V72.2168C604.754 247.71 604.624 360.028 604.609 362.927Z" fill="#263238"/>
<path id="Vector_59" d="M309.914 110.536H249.479V113.898H309.914V110.536Z" fill="#263238"/>
<path id="Vector_60" d="M279.349 118.405H249.479V121.768H279.349V118.405Z" fill="#263238"/>
<path id="Vector_61" d="M294.87 321.173H283.928V324.333H294.87V321.173Z" fill="#263238"/>
<path id="Vector_62" d="M322.696 338.043H308.696V341.202H322.696V338.043Z" fill="#263238"/>
<path id="Vector_63" d="M371.435 338.043H357.435V341.202H371.435V338.043Z" fill="#263238"/>
<path id="Vector_64" d="M420.175 338.043H406.175V341.202H420.175V338.043Z" fill="#263238"/>
<path id="Vector_65" d="M468.914 338.043H454.914V341.202H468.914V338.043Z" fill="#263238"/>
<path id="Vector_66" d="M517.653 338.043H503.653V341.202H517.653V338.043Z" fill="#263238"/>
<path id="Vector_67" d="M566.392 338.043H552.392V341.202H566.392V338.043Z" fill="#263238"/>
<path id="Vector_68" d="M294.87 279.043H283.928V282.202H294.87V279.043Z" fill="#263238"/>
<path id="Vector_69" d="M294.87 199.739H283.928V202.898H294.87V199.739Z" fill="#263238"/>
<path id="Vector_70" d="M294.87 159.883H283.928V163.043H294.87V159.883Z" fill="#263238"/>
<path id="Vector_71" d="M295.435 239.391H284.493V242.55H295.435V239.391Z" fill="#263238"/>
<path id="Vector_72" d="M566.001 324.333C566.001 324.333 565.609 324.333 564.827 324.333H561.377L548.131 324.405L499.421 324.536L338.682 324.637H300.218V324.26C300.218 270.507 300.319 223.202 300.348 189.318C300.348 172.391 300.435 158.883 300.464 149.463C300.464 144.811 300.464 141.202 300.464 138.739C300.464 137.521 300.464 136.608 300.464 135.956C300.464 135.304 300.464 135.014 300.464 135.014C300.464 135.014 300.464 135.333 300.464 135.956C300.464 136.579 300.464 137.521 300.464 138.739C300.464 141.202 300.464 144.811 300.464 149.463C300.464 158.826 300.464 172.391 300.58 189.318C300.58 223.202 300.653 270.478 300.711 324.26L300.334 323.883H338.682L499.421 323.999L548.131 324.115L561.377 324.188H564.827L566.001 324.333Z" fill="#263238"/>
<path id="Vector_73" d="M569.088 240.97C569.088 241.173 511.348 241.347 440.102 241.347C368.856 241.347 311.117 241.173 311.117 240.97C311.117 240.768 368.841 240.594 440.102 240.594C511.363 240.594 569.088 240.753 569.088 240.97Z" fill="#263238"/>
<path id="Vector_74" d="M569.088 201.318C569.088 201.521 511.348 201.695 440.102 201.695C368.856 201.695 311.117 201.521 311.117 201.318C311.117 201.115 368.841 200.941 440.102 200.941C511.363 200.941 569.088 201.115 569.088 201.318Z" fill="#263238"/>
<path id="Vector_75" d="M569.088 161.463C569.088 161.681 511.348 161.84 440.102 161.84C368.856 161.84 311.117 161.681 311.117 161.463C311.117 161.246 368.841 161.086 440.102 161.086C511.363 161.086 569.088 161.26 569.088 161.463Z" fill="#263238"/>
<path id="Vector_76" d="M569.088 280.623C569.088 280.826 511.348 280.999 440.102 280.999C368.856 280.999 311.117 280.826 311.117 280.623C311.117 280.42 368.841 280.246 440.102 280.246C511.363 280.246 569.088 280.42 569.088 280.623Z" fill="#263238"/>
<path id="Vector_77" d="M313.841 315.797V280.623L335.769 246.55L350.653 257.97L381.189 210.536L399.204 223.217L424.262 179.449L444.551 196.043L475.204 138.014L508.102 202.898L534.624 170.434L565.943 161.463V315.797H313.841Z" fill="#455A64"/>
<path id="Vector_78" d="M569.088 148.97C568.904 148.983 568.72 148.983 568.537 148.97H566.899H560.551L536.508 149.072L536.667 148.985L510.899 182.782L510.798 182.898H510.653H446.16L446.479 182.724L419.363 227.855C410.131 243.217 401.189 258.072 392.74 272.101L392.464 272.579L392.146 272.13L357.189 224.115H357.696L325.928 273.797L317.073 287.536C316.059 289.101 315.276 290.304 314.725 291.13C314.175 291.956 313.899 292.347 313.899 292.347C313.899 292.347 314.146 291.912 314.653 291.086L316.914 287.449C318.928 284.246 321.87 279.565 325.609 273.608L357.204 223.797L357.45 223.42L357.725 223.782L392.754 271.739H392.146L418.682 227.507L445.827 182.376L445.928 182.202H446.218L510.711 182.275L510.479 182.391L536.406 148.855V148.768H536.508L560.551 148.869H566.899H568.537L569.088 148.97Z" fill="#263238"/>
<path id="Vector_79" d="M367.957 235.231C367.977 235.725 367.85 236.214 367.59 236.635C367.33 237.055 366.95 237.389 366.5 237.592C366.049 237.795 365.548 237.859 365.061 237.775C364.573 237.691 364.122 237.464 363.766 237.121C363.409 236.779 363.163 236.338 363.058 235.855C362.954 235.371 362.997 234.868 363.181 234.409C363.365 233.951 363.683 233.557 364.092 233.28C364.502 233.003 364.985 232.855 365.479 232.855C366.122 232.843 366.744 233.086 367.208 233.532C367.673 233.977 367.942 234.588 367.957 235.231Z" fill="#263238"/>
<path id="Vector_80" d="M442.392 192.927C442.412 193.422 442.284 193.911 442.024 194.332C441.763 194.753 441.383 195.086 440.931 195.289C440.48 195.492 439.978 195.555 439.49 195.47C439.002 195.385 438.551 195.156 438.195 194.812C437.839 194.468 437.594 194.026 437.491 193.542C437.389 193.057 437.434 192.553 437.62 192.095C437.807 191.636 438.126 191.244 438.537 190.969C438.949 190.693 439.433 190.548 439.928 190.55C440.246 190.544 440.562 190.601 440.858 190.718C441.154 190.834 441.424 191.007 441.652 191.228C441.881 191.449 442.064 191.713 442.191 192.004C442.318 192.295 442.386 192.609 442.392 192.927Z" fill="#263238"/>
<path id="Vector_81" d="M497.754 184.941C499.123 184.941 500.232 183.877 500.232 182.565C500.232 181.252 499.123 180.188 497.754 180.188C496.386 180.188 495.276 181.252 495.276 182.565C495.276 183.877 496.386 184.941 497.754 184.941Z" fill="#263238"/>
<path id="Vector_82" d="M246.87 84.3183C246.87 84.8915 246.7 85.452 246.382 85.9286C246.063 86.4053 245.611 86.7768 245.081 86.9962C244.551 87.2156 243.968 87.273 243.406 87.1611C242.844 87.0493 242.327 86.7732 241.922 86.3678C241.517 85.9625 241.241 85.446 241.129 84.8837C241.017 84.3215 241.074 83.7387 241.294 83.209C241.513 82.6794 241.885 82.2267 242.361 81.9082C242.838 81.5897 243.398 81.4197 243.972 81.4197C244.74 81.4197 245.478 81.7251 246.021 82.2687C246.565 82.8123 246.87 83.5495 246.87 84.3183Z" fill="#263238"/>
<path id="Vector_83" d="M255.218 84.3183C255.218 84.8915 255.048 85.452 254.73 85.9286C254.411 86.4053 253.958 86.7768 253.429 86.9962C252.899 87.2156 252.316 87.273 251.754 87.1611C251.192 87.0493 250.675 86.7732 250.27 86.3678C249.865 85.9625 249.589 85.446 249.477 84.8837C249.365 84.3215 249.422 83.7387 249.642 83.209C249.861 82.6794 250.233 82.2267 250.709 81.9082C251.186 81.5897 251.746 81.4197 252.32 81.4197C253.088 81.4197 253.826 81.7251 254.369 82.2687C254.913 82.8123 255.218 83.5495 255.218 84.3183Z" fill="#263238"/>
<path id="Vector_84" d="M263.609 84.3183C263.609 84.8915 263.439 85.452 263.121 85.9286C262.802 86.4053 262.35 86.7768 261.82 86.9962C261.29 87.2156 260.708 87.273 260.145 87.1611C259.583 87.0493 259.067 86.7732 258.661 86.3678C258.256 85.9625 257.98 85.446 257.868 84.8837C257.756 84.3215 257.813 83.7387 258.033 83.209C258.252 82.6794 258.624 82.2267 259.1 81.9082C259.577 81.5897 260.138 81.4197 260.711 81.4197C261.48 81.4197 262.217 81.7251 262.76 82.2687C263.304 82.8123 263.609 83.5495 263.609 84.3183Z" fill="#263238"/>
<path id="Vector_85" d="M604.305 95.6371C604.305 95.84 520.885 96.0139 418.001 96.0139C315.117 96.0139 231.725 95.8255 231.725 95.6371C231.725 95.4487 315.131 95.2603 418.044 95.2603C520.957 95.2603 604.305 95.4197 604.305 95.6371Z" fill="#263238"/>
</g>
<g id="money-box">
<path id="Vector_86" d="M1.17458 535.782L9.01517 563.941C11.1716 571.588 16.0631 578.175 22.7595 582.451C29.4559 586.726 37.49 588.391 45.334 587.13C45.334 587.13 60.1746 608.289 66.5079 611.768L72.2181 656.884H106.088L108.769 638.608C133.112 648.829 159.424 653.507 185.798 652.304C228.682 650.028 238.957 637.463 238.957 637.463L244.088 656.884H282.348L288.638 607.202C288.638 607.202 335.45 565.521 323.421 516.985C323.421 516.985 357.102 493.985 345.682 461.231L338.827 458.144C338.827 458.144 327.972 477.55 316.551 481.55C316.551 481.55 285.827 382.768 170.175 390.768C170.175 390.768 131.58 389.057 95.0297 406.173C95.0297 406.173 54.4499 385.057 24.2326 400.463C24.2326 400.463 23.6673 435.246 40.7833 455.289C40.7833 455.289 25.9427 488.405 24.8413 495.26L20.421 497.028C13.0017 499.982 6.93416 505.57 3.38224 512.722C-0.169685 519.874 -0.95584 528.086 1.17458 535.782Z" fill="#6B26D9"/>
<path id="Vector_87" d="M82.9861 493.347C82.9861 495.219 82.4311 497.049 81.3912 498.605C80.3513 500.161 78.8733 501.374 77.144 502.091C75.4147 502.807 73.5119 502.994 71.6761 502.629C69.8403 502.264 68.154 501.363 66.8305 500.039C65.5069 498.716 64.6056 497.029 64.2404 495.194C63.8753 493.358 64.0627 491.455 64.779 489.726C65.4953 487.996 66.7083 486.518 68.2646 485.478C69.8209 484.439 71.6506 483.884 73.5224 483.884C76.0323 483.884 78.4395 484.881 80.2143 486.655C81.9891 488.43 82.9861 490.837 82.9861 493.347Z" fill="#263238"/>
<g id="Group" opacity="0.6">
<path id="Vector_88" d="M126.58 415.84L130.827 427.753C130.827 427.753 182.29 412.434 215.464 427.753L220.146 415.84C220.146 415.84 179.74 397.13 126.58 415.84Z" fill="black"/>
</g>
<path id="Vector_89" d="M224.319 433.217C223.993 433.055 223.679 432.871 223.377 432.666C222.769 432.275 221.856 431.739 220.682 431.057C217.34 429.158 213.833 427.567 210.204 426.304C204.819 424.44 199.252 423.158 193.595 422.478C186.66 421.668 179.672 421.407 172.696 421.695C165.711 421.893 158.74 422.449 151.812 423.362C146.16 424.09 140.595 425.386 135.204 427.231C131.573 428.483 128.085 430.116 124.798 432.101C122.464 433.55 121.276 434.434 121.218 434.362C121.482 434.105 121.768 433.872 122.073 433.666C122.893 433.013 123.749 432.409 124.638 431.855C127.895 429.758 131.382 428.042 135.03 426.739C140.432 424.803 146.023 423.442 151.711 422.681C158.665 421.734 165.666 421.168 172.682 420.985C179.693 420.693 186.716 420.975 193.682 421.826C199.381 422.552 204.984 423.898 210.392 425.84C214.024 427.165 217.519 428.839 220.827 430.84C222.001 431.565 222.885 432.159 223.45 432.579C223.756 432.769 224.047 432.982 224.319 433.217Z" fill="#263238"/>
<g id="Group_2" opacity="0.2">
<path id="Vector_90" d="M22.8267 523.26C22.2814 521.789 21.415 520.457 20.2905 519.362C19.7202 518.823 19.0044 518.463 18.2317 518.326C17.459 518.19 16.6632 518.283 15.9427 518.594C14.843 519.465 14.0756 520.688 13.7688 522.057C11.8586 530.684 13.3595 539.715 17.9572 547.26C18.2681 547.788 18.687 548.244 19.1865 548.599C19.686 548.954 20.2549 549.199 20.8557 549.318C23.4499 549.768 24.8122 547.405 25.4499 545.26C27.6383 538.028 25.9282 530.159 22.8267 523.26Z" fill="black"/>
</g>
<path id="Vector_91" d="M43.6094 546.55C43.5365 545.832 43.5365 545.109 43.6094 544.391C43.6573 543.546 43.6573 542.699 43.6094 541.855C43.6094 540.869 43.6094 539.739 43.6094 538.492C43.6094 537.246 43.4789 535.898 43.2905 534.449C43.1021 532.999 42.8702 531.463 42.5949 529.84C41.2681 522.833 38.6907 516.122 34.9862 510.028C34.1021 508.579 33.305 507.304 32.421 506.144C31.5369 504.985 30.7398 503.884 29.9427 502.912C29.1456 501.941 28.392 501.13 27.7398 500.391C27.0876 499.652 26.4934 499.043 26.0007 498.55C25.4722 498.067 24.9873 497.538 24.5514 496.97C25.1518 497.378 25.7145 497.839 26.2326 498.347C26.8767 498.899 27.4911 499.484 28.0731 500.101C28.8861 500.884 29.6554 501.711 30.3775 502.579C31.2036 503.521 32.0876 504.565 32.9572 505.768C33.8268 506.97 34.6963 508.275 35.6094 509.666C37.4914 512.722 39.1014 515.937 40.421 519.275C41.6868 522.648 42.6566 526.125 43.3195 529.666C43.5659 531.304 43.8412 532.855 43.9427 534.333C44.0441 535.811 44.1456 537.231 44.1746 538.42C44.2036 539.608 44.1746 540.811 44.1746 541.811C44.1589 542.659 44.096 543.506 43.9862 544.347C43.9203 545.091 43.7943 545.827 43.6094 546.55Z" fill="#263238"/>
<path id="Vector_92" d="M54.0006 526.26C53.8557 526.26 53.305 523.869 51.6963 520.202C50.7491 518.067 49.6396 516.008 48.3774 514.043C46.7979 511.691 45.0236 509.475 43.0731 507.42C41.0732 505.377 38.9009 503.51 36.5803 501.84C34.6718 500.496 32.6608 499.304 30.5659 498.275C26.9861 496.521 24.5659 495.869 24.6238 495.724C25.2032 495.783 25.773 495.914 26.3195 496.115C26.9855 496.289 27.6392 496.507 28.276 496.768C29.135 497.063 29.9769 497.407 30.7977 497.797C32.9574 498.775 35.028 499.938 36.9861 501.275C39.3663 502.936 41.5839 504.819 43.6093 506.898C45.6082 509.011 47.3991 511.311 48.9572 513.768C50.2181 515.775 51.2996 517.889 52.189 520.086C52.5948 521.014 52.8557 521.898 53.1166 522.652C53.3412 523.296 53.5251 523.955 53.6673 524.623C53.8479 525.152 53.9599 525.702 54.0006 526.26Z" fill="#263238"/>
<path id="Vector_93" d="M14.5659 521.912C14.5046 521.649 14.5183 521.374 14.6053 521.117C14.6924 520.861 14.8495 520.635 15.0587 520.463C15.5235 520.001 16.1315 519.709 16.7833 519.637C17.2166 519.595 17.654 519.64 18.0697 519.769C18.4854 519.899 18.8709 520.11 19.2036 520.391C20.6984 521.935 21.8146 523.806 22.4645 525.855C24.4373 530.657 25.423 535.808 25.363 540.999C25.5224 543.15 25.1282 545.305 24.2181 547.26C23.8496 547.915 23.2945 548.446 22.6233 548.784C21.9522 549.122 21.1956 549.252 20.45 549.159C19.3775 548.956 19.0007 548.347 19.0877 548.362C19.5284 548.634 20.0228 548.807 20.5369 548.869C21.2058 548.9 21.8696 548.74 22.45 548.406C23.0304 548.072 23.5031 547.579 23.8123 546.985C24.6046 545.095 24.9182 543.039 24.7253 540.999C24.7157 538.455 24.4682 535.918 23.9862 533.42C23.5143 530.922 22.8157 528.472 21.8992 526.101C21.3059 524.138 20.2921 522.328 18.9282 520.797C18.4454 520.344 17.8144 520.083 17.153 520.061C16.4916 520.04 15.845 520.26 15.334 520.681C14.9535 520.999 14.6844 521.431 14.5659 521.912Z" fill="#263238"/>
<path id="Vector_94" d="M87.4064 528.594C87.4064 528.594 87.6383 528.869 87.8992 529.463C88.2329 530.304 88.4475 531.187 88.5369 532.086C88.7132 533.587 88.5811 535.107 88.1488 536.554C87.7164 538.002 86.9929 539.345 86.0225 540.503C85.0522 541.661 83.8555 542.608 82.506 543.286C81.1564 543.965 79.6825 544.36 78.1745 544.449C77.2723 544.519 76.3647 544.46 75.4789 544.275C74.8557 544.13 74.5369 543.999 74.5369 543.941C75.7288 544.022 76.9247 544.022 78.1166 543.941C80.9681 543.637 83.5907 542.24 85.4337 540.043C87.2767 537.846 88.1968 535.02 88.0006 532.159C87.8752 530.959 87.6768 529.769 87.4064 528.594Z" fill="#263238"/>
<path id="Vector_95" d="M82.0442 470.246C79.0526 469.031 75.9148 468.212 72.7109 467.811C69.4848 467.659 66.2529 467.942 63.1022 468.652C63.9231 468.129 64.8393 467.775 65.7978 467.608C68.0768 467.051 70.4307 466.865 72.7688 467.057C75.1078 467.254 77.3989 467.832 79.5514 468.768C80.4671 469.101 81.3126 469.602 82.0442 470.246Z" fill="#263238"/>
<path id="Vector_96" d="M241.624 407.71L241.262 407.594L240.204 407.188L236.16 405.579L233.262 404.391C232.189 403.97 231.001 403.594 229.74 403.159C227.189 402.318 224.349 401.202 221.044 400.376L215.943 398.927C214.175 398.449 212.291 398.101 210.349 397.666C206.508 396.71 202.305 396.13 197.914 395.405C188.306 394.145 178.613 393.66 168.928 393.956C159.268 394.374 149.657 395.571 140.189 397.536C135.841 398.565 131.711 399.463 127.943 400.695C126.059 401.275 124.189 401.753 122.464 402.376L117.479 404.173C114.276 405.231 111.522 406.55 109.044 407.579C107.812 408.115 106.653 408.579 105.624 409.028L102.812 410.478L98.8993 412.391L97.8848 412.869C97.7737 412.939 97.651 412.988 97.5225 413.014C97.5225 413.014 97.6239 413.014 97.8413 412.811L98.8268 412.26L102.682 410.217L105.464 408.768C106.493 408.26 107.653 407.768 108.87 407.217C111.334 406.159 114.088 404.797 117.291 403.695L122.276 401.855C124.015 401.217 125.87 400.724 127.769 400.115C131.551 398.855 135.696 397.941 140.044 396.884C149.546 394.874 159.197 393.647 168.899 393.217C178.587 392.945 188.281 393.464 197.885 394.768C202.305 395.507 206.508 396.115 210.378 397.086C212.305 397.55 214.204 397.913 215.972 398.42L221.073 399.869C224.349 400.724 227.189 401.884 229.769 402.768C231.03 403.217 232.218 403.623 233.291 404.043L236.189 405.304L240.175 407.057L241.204 407.536C241.522 407.637 241.638 407.695 241.624 407.71Z" fill="white"/>
<path id="Vector_97" d="M258.856 417.318C257.278 417.07 255.748 416.581 254.319 415.869C252.793 415.375 251.354 414.641 250.059 413.695C251.64 413.945 253.174 414.434 254.609 415.144C256.129 415.644 257.562 416.377 258.856 417.318Z" fill="white"/>
<path id="Vector_98" d="M17.9573 504.391C17.9573 504.521 16.6384 505.072 14.6384 506.333C9.41627 509.656 5.53583 514.717 3.68189 520.623C2.98624 522.883 2.81232 524.347 2.6674 524.333C2.60761 523.988 2.60761 523.635 2.6674 523.289C2.7488 522.334 2.9186 521.388 3.17464 520.463C3.96599 517.411 5.36127 514.548 7.278 512.043C9.19473 509.539 11.594 507.445 14.3341 505.883C15.1538 505.402 16.0176 504.999 16.9138 504.681C17.2418 504.523 17.5951 504.425 17.9573 504.391Z" fill="white"/>
<path id="Vector_99" d="M106.986 648.42C106.986 648.42 106.725 648.072 106.117 647.608C105.206 646.97 104.089 646.696 102.986 646.84C102.14 646.929 101.327 647.213 100.61 647.671C99.8927 648.129 99.2922 648.748 98.8558 649.478C97.7722 651.442 97.2695 653.674 97.4065 655.912H96.7398C96.8568 654.773 96.727 653.621 96.3594 652.536C95.9918 651.45 95.395 650.457 94.6094 649.623C93.7335 648.718 92.607 648.097 91.3749 647.839C90.1428 647.581 88.8616 647.697 87.6963 648.173C86.9496 648.492 86.2937 648.991 85.7878 649.626C85.2818 650.261 84.9416 651.012 84.7978 651.811C84.6199 652.556 84.623 653.333 84.8071 654.077C84.9912 654.821 85.3508 655.51 85.8558 656.086L85.2616 656.449C84.4916 653.681 83.0874 651.13 81.1601 648.999C80.3995 648.197 79.4461 647.603 78.3908 647.273C77.3355 646.943 76.2133 646.889 75.1311 647.115C74.4335 647.313 73.7889 647.664 73.2447 648.143C72.7005 648.622 72.2705 649.217 71.9862 649.883C71.8138 650.385 71.7066 650.906 71.6673 651.434C71.5253 650.896 71.5609 650.327 71.7688 649.811C72.0273 649.076 72.4542 648.411 73.0154 647.87C73.5765 647.329 74.2564 646.927 75.0007 646.695C76.1641 646.407 77.3824 646.427 78.5359 646.752C79.6894 647.078 80.7386 647.697 81.5804 648.55C83.6189 650.718 85.1096 653.342 85.9282 656.202L86.5224 657.826L85.3485 656.55C84.7589 655.893 84.3365 655.103 84.117 654.248C83.8975 653.393 83.8874 652.497 84.0876 651.637C84.2594 650.714 84.6579 649.848 85.2473 649.117C85.8367 648.386 86.5986 647.812 87.4645 647.449C88.7713 646.915 90.208 646.784 91.5898 647.073C92.9717 647.362 94.2353 648.058 95.2181 649.072C96.0658 649.988 96.7064 651.075 97.0966 652.261C97.4867 653.446 97.6171 654.701 97.479 655.942H96.8123C96.6902 653.588 97.2595 651.251 98.45 649.217C98.9817 648.371 99.7133 647.669 100.58 647.173C101.331 646.777 102.155 646.54 103.001 646.478C104.186 646.368 105.367 646.727 106.291 647.478C106.596 647.73 106.835 648.054 106.986 648.42Z" fill="#263238"/>
</g>
<g id="Character">
<path id="Vector_100" d="M308.928 645.637L306.435 656.13C306.435 656.13 289.261 678.434 283.972 677.333C280.493 676.623 284.769 670.811 291.218 653.869L292.667 646.884L308.928 645.637Z" fill="#455A64"/>
<path id="Vector_101" d="M283.276 674.086C283.483 674.468 283.801 674.776 284.189 674.97C284.727 675.203 285.319 675.283 285.899 675.201C286.48 675.119 287.026 674.879 287.479 674.507C290.483 671.984 293.334 669.283 296.015 666.42C299.189 663.086 301.812 659.869 303.74 657.507L305.928 654.681C306.146 654.405 306.348 654.159 306.522 653.912C306.591 653.818 306.669 653.731 306.754 653.652C306.686 653.746 306.608 653.833 306.522 653.912L305.972 654.724C305.493 655.42 304.769 656.405 303.856 657.623C301.459 660.754 298.895 663.754 296.175 666.608C293.468 669.499 290.563 672.197 287.479 674.681C286.905 675.084 286.235 675.329 285.537 675.391C285.009 675.421 284.482 675.305 284.015 675.057C283.717 674.906 283.466 674.675 283.29 674.391C283.27 674.291 283.265 674.188 283.276 674.086Z" fill="#263238"/>
<path id="Vector_102" d="M285.696 666.84C286.156 666.656 286.657 666.601 287.146 666.681C288.296 666.794 289.403 667.176 290.377 667.797C291.389 668.377 292.206 669.245 292.725 670.289C292.959 670.711 293.089 671.184 293.102 671.666C293.102 671.666 292.943 671.144 292.537 670.391C291.983 669.426 291.182 668.626 290.218 668.072C289.278 667.468 288.221 667.068 287.117 666.898C286.644 666.854 286.17 666.835 285.696 666.84Z" fill="#263238"/>
<path id="Vector_103" d="M301.957 661.652C301.855 661.497 301.782 661.325 301.74 661.144C301.597 660.669 301.486 660.185 301.406 659.695C301.164 658.057 301.443 656.384 302.203 654.912C302.956 653.435 304.18 652.252 305.682 651.55C306.14 651.333 306.629 651.186 307.131 651.115C307.309 651.086 307.49 651.086 307.667 651.115C307.026 651.284 306.401 651.507 305.798 651.782C304.38 652.516 303.229 653.677 302.508 655.101C301.781 656.521 301.484 658.123 301.653 659.71C301.769 660.898 302.001 661.637 301.957 661.652Z" fill="#263238"/>
<path id="Vector_104" d="M307.841 647.42C307.841 647.42 307.522 648.869 307.204 650.768C307.071 651.908 306.768 653.021 306.305 654.072C306.305 654.072 306.58 652.623 306.899 650.71C307.038 649.57 307.356 648.46 307.841 647.42Z" fill="#263238"/>
<path id="Vector_105" d="M290.986 655.347C291.707 655.147 292.468 655.147 293.189 655.347C293.928 655.462 294.618 655.789 295.175 656.289C295.175 656.376 294.276 655.912 293.117 655.652C291.957 655.391 291.001 655.449 290.986 655.347Z" fill="#263238"/>
<path id="Vector_106" d="M290.638 657.144C291.238 656.931 291.893 656.931 292.493 657.144C293.126 657.236 293.703 657.556 294.117 658.043C294.117 658.115 293.377 657.666 292.421 657.449C291.464 657.231 290.653 657.246 290.638 657.144Z" fill="#263238"/>
<path id="Vector_107" d="M289.261 659.405C289.547 659.23 289.866 659.117 290.199 659.075C290.531 659.032 290.869 659.061 291.189 659.159C291.52 659.207 291.837 659.326 292.117 659.509C292.398 659.692 292.635 659.933 292.812 660.217C292.281 659.896 291.711 659.643 291.117 659.463C290.503 659.368 289.88 659.348 289.261 659.405Z" fill="#263238"/>
<path id="Vector_108" d="M292.175 654.594C292.175 654.594 292.957 654.391 294.189 653.912C294.902 653.628 295.595 653.294 296.262 652.913C296.624 652.695 297.015 652.449 297.392 652.188C297.769 651.927 298.131 651.55 298.117 651.144C298.102 650.739 297.595 650.507 297.204 650.608C296.795 650.749 296.431 650.994 296.146 651.318C295.508 651.913 294.972 652.478 294.537 652.97C293.653 653.956 293.175 654.608 293.088 654.579C293.161 654.402 293.259 654.237 293.377 654.086C293.58 653.782 293.899 653.347 294.319 652.826C294.816 652.229 295.343 651.658 295.899 651.115C296.216 650.747 296.627 650.472 297.088 650.318C297.226 650.275 297.372 650.262 297.516 650.28C297.659 650.299 297.798 650.349 297.92 650.426C298.043 650.503 298.147 650.606 298.226 650.728C298.305 650.849 298.357 650.986 298.377 651.13C298.349 651.398 298.258 651.655 298.112 651.882C297.966 652.108 297.769 652.298 297.537 652.434C297.155 652.699 296.758 652.941 296.348 653.159C295.668 653.541 294.955 653.861 294.218 654.115C293.721 654.29 293.213 654.43 292.696 654.536C292.377 654.608 292.175 654.623 292.175 654.594Z" fill="#263238"/>
<path id="Vector_109" d="M293.073 654.376C292.934 653.744 292.828 653.106 292.754 652.463C292.645 651.78 292.45 651.113 292.175 650.478C292.01 650.112 291.795 649.77 291.537 649.463C291.276 649.173 290.87 648.912 290.551 649.101C290.233 649.289 290.189 649.768 290.233 650.159C290.297 650.552 290.409 650.937 290.566 651.304C290.85 651.931 291.227 652.512 291.682 653.028C292.479 653.912 293.131 654.333 293.131 654.376C293.131 654.42 292.957 654.376 292.682 654.115C292.287 653.84 291.918 653.53 291.58 653.188C291.081 652.669 290.67 652.071 290.363 651.42C290.188 651.026 290.061 650.612 289.986 650.188C289.926 649.941 289.939 649.682 290.024 649.443C290.109 649.203 290.262 648.994 290.464 648.84C290.703 648.747 290.967 648.737 291.212 648.814C291.457 648.89 291.669 649.048 291.812 649.26C292.092 649.592 292.321 649.963 292.493 650.362C292.768 651.024 292.948 651.722 293.03 652.434C293.102 653.028 293.131 653.521 293.146 653.883C293.144 654.05 293.119 654.216 293.073 654.376Z" fill="#263238"/>
<path id="Vector_110" d="M391.146 650.507L391.218 636.507L365.059 636.188L364.696 656.695L366.319 656.826C373.566 657.318 403.117 658.797 407.972 657.391C413.392 655.797 391.146 650.507 391.146 650.507Z" fill="#455A64"/>
<path id="Vector_111" d="M364.334 656.072H364.783L366.088 656.173L370.841 656.434C374.87 656.637 380.435 656.826 386.58 656.912C392.725 656.999 398.29 656.912 402.319 656.912L407.088 656.782H402.319C398.305 656.782 392.74 656.782 386.595 656.782C380.45 656.782 374.899 656.536 370.87 656.405L366.102 656.231H364.812L364.334 656.072Z" fill="#263238"/>
<path id="Vector_112" d="M399.653 657.231C399.877 656.448 400.183 655.69 400.566 654.97C401.049 654.313 401.603 653.71 402.218 653.173C401.399 653.455 400.716 654.035 400.305 654.797C399.793 655.499 399.561 656.367 399.653 657.231Z" fill="#263238"/>
<path id="Vector_113" d="M391.972 653.217C392.044 653.217 392.421 652.811 392.798 652.217C393.175 651.623 393.45 651.101 393.378 651.043C393.305 650.985 392.928 651.449 392.537 652.043C392.146 652.637 391.885 653.159 391.972 653.217Z" fill="#263238"/>
<path id="Vector_114" d="M389.856 652.057C389.856 652.13 390.334 651.855 390.783 651.463C391.233 651.072 391.566 650.681 391.508 650.608C391.45 650.536 391.03 650.826 390.58 651.217C390.131 651.608 389.798 651.999 389.856 652.057Z" fill="#263238"/>
<path id="Vector_115" d="M388.551 649.565C388.985 649.733 389.45 649.802 389.914 649.768C390.4 649.836 390.896 649.791 391.363 649.637C390.902 649.46 390.405 649.395 389.914 649.449C389.457 649.388 388.992 649.428 388.551 649.565Z" fill="#263238"/>
<path id="Vector_116" d="M388.102 647.826C388.556 648.119 389.083 648.28 389.624 648.289C390.159 648.387 390.711 648.316 391.204 648.086C390.704 648.015 390.2 647.986 389.696 647.999C389.172 647.89 388.638 647.831 388.102 647.826Z" fill="#263238"/>
<path id="Vector_117" d="M392.885 650.898C393.441 650.99 394.009 650.99 394.566 650.898C395.176 650.841 395.778 650.719 396.363 650.536C396.722 650.437 397.067 650.296 397.392 650.115C397.597 650.008 397.752 649.827 397.827 649.608C397.856 649.483 397.848 649.352 397.804 649.231C397.76 649.11 397.683 649.005 397.58 648.927C396.94 648.603 396.207 648.512 395.507 648.667C394.807 648.823 394.182 649.217 393.74 649.782C393.474 650.11 393.282 650.49 393.175 650.898C393.137 651.045 393.137 651.2 393.175 651.347C393.348 650.822 393.613 650.331 393.957 649.898C394.343 649.461 394.846 649.144 395.406 648.985C395.736 648.874 396.084 648.83 396.43 648.858C396.776 648.885 397.113 648.983 397.421 649.144C397.682 649.347 397.58 649.652 397.276 649.826C396.974 649.994 396.653 650.125 396.32 650.217C395.752 650.408 395.171 650.553 394.58 650.652C393.522 650.898 392.885 650.898 392.885 650.898Z" fill="#263238"/>
<path id="Vector_118" d="M393.32 651.028C393.532 650.676 393.605 650.257 393.522 649.855C393.481 649.414 393.331 648.991 393.088 648.623C392.944 648.362 392.735 648.143 392.48 647.988C392.226 647.833 391.936 647.747 391.638 647.739C391.467 647.777 391.316 647.879 391.216 648.024C391.117 648.17 391.076 648.347 391.102 648.521C391.14 648.789 391.234 649.045 391.377 649.275C391.594 649.649 391.857 649.995 392.16 650.304C392.419 650.608 392.747 650.847 393.117 650.999C393.117 650.999 392.783 650.695 392.334 650.144C392.064 649.834 391.831 649.494 391.638 649.13C391.406 648.768 391.262 648.13 391.638 648.057C392.015 647.985 392.493 648.449 392.74 648.782C392.972 649.112 393.13 649.487 393.204 649.883C393.273 650.261 393.312 650.644 393.32 651.028Z" fill="#263238"/>
<path id="Vector_119" d="M364.972 648.898C364.972 648.898 365.711 648.898 366.899 648.985C368.443 649.174 369.901 649.798 371.104 650.783C372.307 651.768 373.206 653.074 373.696 654.55C374.088 655.681 374.117 656.434 374.175 656.434C374.203 656.257 374.203 656.076 374.175 655.898C374.145 655.406 374.058 654.92 373.914 654.449C373.464 652.902 372.556 651.527 371.309 650.508C370.061 649.488 368.534 648.871 366.928 648.739C366.446 648.693 365.961 648.693 365.479 648.739C365.301 648.76 365.129 648.814 364.972 648.898Z" fill="#263238"/>
<path id="Vector_120" d="M367.827 638.028C367.615 639.813 367.513 641.608 367.522 643.405C367.417 645.201 367.417 647.001 367.522 648.797C367.724 647.007 367.821 645.206 367.812 643.405C367.918 641.615 367.923 639.82 367.827 638.028Z" fill="#263238"/>
<path id="Vector_121" d="M377.537 654.072C378.79 654.369 380.075 654.511 381.363 654.492C382.649 654.58 383.941 654.493 385.204 654.231C385.204 654.144 383.479 654.231 381.377 654.231C379.276 654.231 377.551 653.97 377.537 654.072Z" fill="#263238"/>
<path id="Vector_122" d="M372.406 653.999C372.334 653.999 372.537 654.362 372.711 654.753C372.885 655.144 372.972 655.492 373.059 655.492C373.146 655.492 373.204 655.086 373.059 654.623C372.914 654.159 372.464 653.927 372.406 653.999Z" fill="#263238"/>
<path id="Vector_123" d="M370.493 651.565C370.493 651.565 370.595 651.898 370.87 652.173C371.146 652.449 371.406 652.623 371.464 652.565C371.522 652.507 371.363 652.231 371.102 651.956C370.841 651.681 370.566 651.492 370.493 651.565Z" fill="#263238"/>
<path id="Vector_124" d="M367.74 650.42C367.74 650.507 368.102 650.507 368.493 650.652C368.885 650.797 369.146 650.999 369.218 650.941C369.29 650.883 369.073 650.521 368.595 650.347C368.117 650.173 367.711 650.347 367.74 650.42Z" fill="#263238"/>
<path id="Vector_125" d="M365.769 649.883C365.769 649.956 365.885 650.101 366.102 650.188C366.32 650.275 366.522 650.275 366.551 650.188C366.58 650.101 366.435 649.97 366.233 649.883C366.03 649.797 365.812 649.797 365.769 649.883Z" fill="#263238"/>
<path id="Vector_126" d="M408.87 382.434L398.812 645.202L357.972 646.057L364.754 418.391L318.841 647.797H280.015L330.03 382.97L408.87 382.434Z" fill="#263238"/>
<path id="Vector_127" d="M374.16 391.999C374.129 393.459 373.974 394.914 373.696 396.347C373.319 398.999 372.74 402.681 372.059 406.71C371.797 408.636 371.41 410.544 370.899 412.42C370.436 413.996 369.506 415.396 368.233 416.434C367.376 417.128 366.351 417.583 365.262 417.753C364.872 417.853 364.463 417.853 364.073 417.753C365.479 417.548 366.803 416.961 367.899 416.057C369.04 415.037 369.861 413.708 370.262 412.231C370.729 410.379 371.092 408.501 371.348 406.608C372.03 402.565 372.682 398.912 373.189 396.275C373.399 394.826 373.723 393.396 374.16 391.999Z" fill="#455A64"/>
<path id="Vector_128" d="M365.667 393.26C365.754 393.26 365.421 393.753 365.667 394.434C365.717 394.619 365.802 394.793 365.919 394.944C366.036 395.096 366.182 395.223 366.349 395.318C366.558 395.392 366.783 395.408 367 395.365C367.218 395.322 367.419 395.221 367.584 395.072C367.749 394.924 367.87 394.734 367.936 394.522C368.002 394.31 368.009 394.085 367.957 393.869C367.89 393.691 367.785 393.529 367.65 393.394C367.515 393.259 367.353 393.154 367.175 393.086C366.508 392.797 366.044 393.086 366.001 392.985C365.957 392.883 366.377 392.391 367.334 392.594C367.608 392.661 367.863 392.789 368.079 392.97C368.295 393.151 368.466 393.379 368.58 393.637C368.701 393.98 368.713 394.352 368.614 394.702C368.516 395.053 368.312 395.364 368.03 395.594C367.767 395.842 367.434 396.004 367.076 396.056C366.718 396.108 366.352 396.047 366.03 395.883C365.788 395.737 365.584 395.536 365.433 395.297C365.282 395.058 365.189 394.788 365.16 394.507C365.059 393.55 365.638 393.173 365.667 393.26Z" fill="#455A64"/>
<path id="Vector_129" d="M343.74 397.014C343.261 395.835 343.082 394.557 343.219 393.292C343.355 392.028 343.803 390.817 344.522 389.768C344.711 389.855 344.117 391.405 343.928 393.391C343.74 395.376 343.943 396.956 343.74 397.014Z" fill="#455A64"/>
<path id="Vector_130" d="M348.653 396.695C348.054 395.505 347.846 394.156 348.059 392.84C348.04 391.502 348.435 390.191 349.189 389.086C349.377 389.086 348.914 390.811 348.783 392.883C348.807 394.155 348.763 395.428 348.653 396.695Z" fill="#455A64"/>
<path id="Vector_131" d="M390.856 397.768C390.817 396.449 390.894 395.13 391.088 393.826C391.038 392.504 391.096 391.181 391.261 389.869C391.806 391.122 391.991 392.502 391.798 393.855C391.846 395.22 391.521 396.574 390.856 397.768Z" fill="#455A64"/>
<path id="Vector_132" d="M396.189 397.478C395.986 397.391 396.624 395.666 396.769 393.463C396.914 391.26 396.537 389.478 396.769 389.42C397.351 390.704 397.605 392.112 397.509 393.518C397.413 394.924 396.969 396.285 396.218 397.478H396.189Z" fill="#455A64"/>
<path id="Vector_133" d="M352.015 273.115L377.232 271.101C377.392 268.202 377.232 256.782 377.232 256.782C377.232 256.782 387.725 255.144 387.856 244.666C387.986 234.188 386.16 210.101 386.16 210.101C380.188 207.514 373.633 206.573 367.175 207.376C360.717 208.179 354.592 210.696 349.435 214.666L347.885 215.869L352.015 273.115Z" fill="#FFBE9D"/>
<path id="Vector_134" d="M377.146 256.695C372.304 256.793 367.545 255.441 363.479 252.811C363.479 252.811 366.711 260.362 377.175 259.42L377.146 256.695Z" fill="#EB996E"/>
<path id="Vector_135" d="M381.972 226.536C381.972 226.92 381.819 227.289 381.547 227.56C381.275 227.832 380.907 227.985 380.522 227.985C380.332 227.999 380.141 227.975 379.96 227.914C379.778 227.854 379.611 227.759 379.467 227.633C379.323 227.508 379.205 227.356 379.12 227.185C379.035 227.014 378.985 226.828 378.972 226.637C378.972 226.253 379.124 225.884 379.396 225.612C379.668 225.341 380.037 225.188 380.421 225.188C380.611 225.174 380.803 225.198 380.984 225.258C381.165 225.319 381.332 225.414 381.476 225.539C381.621 225.665 381.738 225.817 381.823 225.988C381.908 226.159 381.959 226.345 381.972 226.536Z" fill="#263238"/>
<path id="Vector_136" d="M384.073 224.811C383.885 224.999 382.754 224.159 381.175 224.159C379.595 224.159 378.377 224.97 378.204 224.782C378.03 224.594 378.305 224.333 378.827 223.956C379.528 223.48 380.356 223.228 381.204 223.231C382.042 223.228 382.859 223.492 383.537 223.985C384.001 224.405 384.16 224.811 384.073 224.811Z" fill="#263238"/>
<path id="Vector_137" d="M365.696 226.912C365.696 227.297 365.544 227.665 365.272 227.937C365 228.209 364.631 228.362 364.247 228.362C364.057 228.376 363.865 228.352 363.684 228.291C363.503 228.231 363.336 228.135 363.192 228.01C363.047 227.885 362.93 227.732 362.845 227.561C362.76 227.39 362.709 227.204 362.696 227.014C362.696 226.63 362.849 226.261 363.121 225.989C363.393 225.717 363.761 225.565 364.146 225.565C364.336 225.551 364.527 225.575 364.708 225.635C364.89 225.696 365.057 225.791 365.201 225.916C365.345 226.042 365.463 226.194 365.548 226.365C365.633 226.536 365.683 226.722 365.696 226.912Z" fill="#263238"/>
<path id="Vector_138" d="M368.233 225.144C368.044 225.347 366.914 224.507 365.334 224.507C363.754 224.507 362.537 225.318 362.363 225.115C362.189 224.912 362.464 224.681 362.986 224.304C363.681 223.815 364.514 223.561 365.363 223.579C366.201 223.576 367.018 223.84 367.696 224.333C368.16 224.71 368.334 225.057 368.233 225.144Z" fill="#263238"/>
<path id="Vector_139" d="M374.088 237.101C374.935 236.838 375.811 236.677 376.696 236.623C377.117 236.623 377.508 236.507 377.566 236.217C377.603 235.792 377.507 235.367 377.291 234.999C376.914 234.033 376.508 232.99 376.073 231.869C374.947 229.217 374.036 226.479 373.349 223.681C374.687 226.239 375.821 228.9 376.74 231.637C377.146 232.724 377.522 233.782 377.899 234.782C378.156 235.282 378.227 235.857 378.102 236.405C378.042 236.552 377.95 236.683 377.832 236.788C377.714 236.894 377.573 236.971 377.421 237.014C377.195 237.079 376.961 237.113 376.725 237.115C375.849 237.22 374.963 237.215 374.088 237.101Z" fill="#263238"/>
<path id="Vector_140" d="M369.406 238.217C369.667 238.217 369.667 239.941 371.16 241.188C372.653 242.434 374.522 242.246 374.537 242.478C374.551 242.71 374.117 242.826 373.334 242.84C372.312 242.857 371.316 242.513 370.522 241.869C369.735 241.25 369.216 240.353 369.073 239.362C369.03 238.637 369.218 238.202 369.406 238.217Z" fill="#263238"/>
<path id="Vector_141" d="M368.653 218.84C368.493 219.275 366.885 219.057 365.001 219.289C363.117 219.521 361.58 220.043 361.319 219.637C361.218 219.449 361.479 219.043 362.088 218.623C362.911 218.101 363.843 217.773 364.813 217.665C365.782 217.557 366.763 217.672 367.682 217.999C368.377 218.275 368.725 218.623 368.653 218.84Z" fill="#263238"/>
<path id="Vector_142" d="M383.479 220.188C383.204 220.55 382.03 220.188 380.754 220.188C379.479 220.188 378.29 220.434 378.03 220.043C377.769 219.652 378.03 219.492 378.595 219.144C379.253 218.717 380.029 218.509 380.812 218.55C381.593 218.567 382.351 218.819 382.986 219.275C383.45 219.623 383.609 219.999 383.479 220.188Z" fill="#263238"/>
<path id="Vector_143" d="M349.117 226.753C348.943 226.681 341.87 224.623 342.146 231.797C342.421 238.97 349.522 237.26 349.537 237.057C349.551 236.854 349.117 226.753 349.117 226.753Z" fill="#FFBE9D"/>
<path id="Vector_144" d="M347.305 234.405C347.305 234.405 347.189 234.492 346.986 234.594C346.684 234.717 346.346 234.717 346.044 234.594C345.585 234.307 345.209 233.904 344.955 233.425C344.7 232.947 344.576 232.41 344.595 231.869C344.553 231.251 344.652 230.631 344.885 230.057C344.945 229.833 345.057 229.627 345.214 229.455C345.37 229.284 345.566 229.152 345.783 229.072C345.926 229.031 346.079 229.04 346.216 229.098C346.353 229.156 346.466 229.26 346.537 229.391C346.638 229.594 346.537 229.739 346.638 229.753C346.74 229.768 346.783 229.623 346.725 229.333C346.675 229.154 346.568 228.996 346.421 228.883C346.217 228.747 345.969 228.69 345.725 228.724C345.433 228.792 345.163 228.935 344.942 229.138C344.721 229.341 344.557 229.598 344.464 229.883C344.172 230.513 344.043 231.206 344.088 231.898C344.071 232.537 344.246 233.167 344.59 233.706C344.933 234.246 345.429 234.671 346.015 234.927C346.208 234.977 346.409 234.984 346.605 234.947C346.801 234.909 346.985 234.828 347.146 234.71C347.305 234.579 347.334 234.42 347.305 234.405Z" fill="#EB996E"/>
<path id="Vector_145" d="M390.073 201.043C389.309 199.532 388.209 198.217 386.858 197.197C385.507 196.178 383.94 195.481 382.278 195.161C380.616 194.84 378.903 194.905 377.27 195.349C375.636 195.793 374.126 196.606 372.856 197.724C372.06 196.137 370.886 194.769 369.438 193.74C367.991 192.712 366.313 192.054 364.551 191.825C362.79 191.596 361 191.803 359.337 192.427C357.675 193.051 356.191 194.074 355.015 195.405C353.001 197.695 351.957 200.782 349.609 202.652C347.566 204.318 344.812 204.869 342.754 206.507C341.618 207.417 340.755 208.624 340.261 209.993C339.766 211.363 339.659 212.842 339.951 214.269C340.244 215.695 340.924 217.013 341.917 218.078C342.91 219.143 344.178 219.913 345.58 220.304C345.065 221.335 344.764 222.46 344.697 223.611C344.629 224.762 344.796 225.915 345.188 226.999C345.58 228.083 346.188 229.077 346.975 229.919C347.763 230.761 348.713 231.434 349.769 231.898L350.812 231.463C352.764 229.243 354.013 226.493 354.4 223.562C354.787 220.63 354.295 217.65 352.986 214.999C353.112 215.007 353.237 215.007 353.363 214.999C355.166 216.005 357.278 216.307 359.291 215.847C361.304 215.387 363.075 214.196 364.262 212.507C365.714 213.524 367.428 214.104 369.2 214.179C370.972 214.253 372.728 213.819 374.262 212.927C374.691 212.6 375.185 212.368 375.711 212.246C376.374 212.257 377.022 212.452 377.58 212.811C379.136 213.652 380.908 214.005 382.667 213.826C383.478 213.726 384.251 213.425 384.914 212.948C385.578 212.472 386.111 211.837 386.464 211.101H386.595C387.597 210.872 388.518 210.373 389.256 209.657C389.995 208.942 390.523 208.038 390.783 207.043C391.305 205.024 391.052 202.884 390.073 201.043Z" fill="#263238"/>
<path id="Vector_146" d="M405.986 326.898L406.914 279.652C398.522 271.405 394.044 268.941 382.363 267.565L379.189 267.202L378.189 259.42L349.551 257.797L351.001 267.043C346.856 267.217 343.406 268.492 339.885 269.173C328.754 271.304 320.74 279.405 318.522 286.898C316.682 293.057 304.928 338.724 304.928 338.724L302.537 352.507L328.827 342.97V352.898V389.362H408.537C408.812 380.666 405.986 326.898 405.986 326.898Z" fill="#6B26D9"/>
<g id="Group_3" opacity="0.2">
<path id="Vector_147" d="M405.986 326.898L406.914 279.652C398.522 271.405 394.044 268.941 382.363 267.565L379.189 267.202L378.189 259.42L349.551 257.797L351.001 267.043C346.856 267.217 343.406 268.492 339.885 269.173C328.754 271.304 320.74 279.405 318.522 286.898C316.682 293.057 304.928 338.724 304.928 338.724L302.537 352.507L328.827 342.97V352.898V389.362H408.537C408.812 380.666 405.986 326.898 405.986 326.898Z" fill="black"/>
</g>
<path id="Vector_148" d="M314.508 339.376L353.827 333.797L361.305 347.188L324.754 363.666C322.716 364.6 320.504 365.094 318.261 365.115C315.123 365.108 312.059 364.165 309.459 362.407C306.859 360.649 304.843 358.155 303.667 355.246L302.479 352.347L314.508 339.376Z" fill="#6B26D9"/>
<g id="Group_4" opacity="0.2">
<path id="Vector_149" d="M314.508 339.376L353.827 333.797L361.305 347.188L324.754 363.666C322.716 364.6 320.504 365.094 318.261 365.115C315.123 365.108 312.059 364.165 309.459 362.407C306.859 360.649 304.843 358.155 303.667 355.246L302.479 352.347L314.508 339.376Z" fill="black"/>
</g>
<path id="Vector_150" d="M394.856 270.449C394.856 270.449 405.972 274.231 410.638 284.941C413.682 291.927 418.16 325.521 418.16 325.521L423.798 336.405C425.154 339.015 425.86 341.914 425.856 344.854V346.521C425.86 350.745 424.406 354.84 421.74 358.115C420.193 360.018 418.28 361.591 416.114 362.741C413.948 363.891 411.574 364.595 409.131 364.811C403.493 365.318 396.682 365.536 395.233 363.883C392.667 360.985 388.812 353.057 388.812 353.057L405.233 344.362L398.16 331.318L394.856 270.449Z" fill="#6B26D9"/>
<g id="Group_5" opacity="0.2">
<path id="Vector_151" d="M394.856 270.449C394.856 270.449 405.972 274.231 410.638 284.941C413.682 291.927 418.16 325.521 418.16 325.521L423.798 336.405C425.154 339.015 425.86 341.914 425.856 344.854V346.521C425.86 350.745 424.406 354.84 421.74 358.115C420.193 360.018 418.28 361.591 416.114 362.741C413.948 363.891 411.574 364.595 409.131 364.811C403.493 365.318 396.682 365.536 395.233 363.883C392.667 360.985 388.812 353.057 388.812 353.057L405.233 344.362L398.16 331.318L394.856 270.449Z" fill="black"/>
</g>
<path id="Vector_152" d="M327.493 362.492C327.493 362.492 327.696 362.347 328.131 362.13L330.015 361.217L337.073 357.912L361.16 346.912L361.001 347.42L356.392 339.159L353.493 334.028L353.841 334.202L325.03 337.028L316.479 337.797L314.16 337.97C313.891 338.012 313.617 338.012 313.349 337.97C313.609 337.899 313.876 337.85 314.146 337.826L316.45 337.536L324.986 336.55L353.798 333.507H354.03L354.146 333.71L357.044 338.84L361.638 347.101L361.827 347.434L361.479 347.594L337.291 358.362L330.146 361.463L328.204 362.275C327.974 362.369 327.736 362.442 327.493 362.492Z" fill="#263238"/>
<path id="Vector_153" d="M334.479 335.492C334.276 335.492 334.117 328.463 334.117 319.797C334.117 311.13 334.276 304.101 334.479 304.101C334.682 304.101 334.841 311.13 334.841 319.797C334.841 328.463 334.624 335.492 334.479 335.492Z" fill="#263238"/>
<path id="Vector_154" d="M402.16 345.999C402.16 345.999 402.58 345.869 403.348 345.811C404.458 345.707 405.577 345.771 406.667 345.999C407.465 346.17 408.19 346.585 408.74 347.188C409.314 347.909 409.689 348.769 409.827 349.681C410.006 350.686 409.916 351.721 409.566 352.681C409.169 353.708 408.479 354.595 407.58 355.231C405.842 356.293 403.903 356.984 401.885 357.26C400.275 357.572 398.64 357.732 397.001 357.739C395.486 357.868 393.963 357.604 392.58 356.97C394.042 357.195 395.522 357.283 397.001 357.231C398.6 357.155 400.19 356.947 401.754 356.608C403.667 356.318 405.504 355.653 407.16 354.652C407.916 354.111 408.505 353.37 408.861 352.512C409.218 351.654 409.326 350.713 409.175 349.797C409.07 348.991 408.766 348.224 408.29 347.565C407.824 347.042 407.214 346.669 406.537 346.492C405.494 346.231 404.424 346.095 403.348 346.086C402.95 346.103 402.552 346.074 402.16 345.999Z" fill="#263238"/>
<path id="Vector_155" d="M408.682 364.999C407.743 365.283 406.762 365.396 405.783 365.333C403.467 365.406 401.158 365.027 398.986 364.217C397.786 363.764 396.651 363.154 395.609 362.405C394.764 361.77 394.054 360.972 393.522 360.057C392.98 359.255 392.633 358.337 392.508 357.376C392.624 357.376 393.001 358.362 393.957 359.782C394.516 360.597 395.212 361.308 396.015 361.883C397.028 362.56 398.118 363.115 399.262 363.536C401.356 364.316 403.564 364.751 405.798 364.825C406.762 364.815 407.726 364.873 408.682 364.999Z" fill="#263238"/>
<path id="Vector_156" d="M416.537 330.941C415.971 331.784 415.32 332.566 414.595 333.275C413.334 334.652 411.551 336.536 409.551 338.579C407.551 340.623 405.725 342.463 404.363 343.753C403.681 344.508 402.913 345.179 402.073 345.753C402.618 344.895 403.266 344.107 404.001 343.405C405.262 341.956 407.044 340.13 409.03 338.086C411.345 335.516 413.855 333.127 416.537 330.941Z" fill="#263238"/>
<path id="Vector_157" d="M398.624 323.608C398.261 320.632 398.14 317.632 398.261 314.637C398.14 311.637 398.261 308.632 398.624 305.652C398.987 308.632 399.108 311.637 398.986 314.637C399.108 317.632 398.987 320.632 398.624 323.608Z" fill="#263238"/>
<path id="Vector_158" d="M404.479 276.536C404.479 276.739 386.783 276.912 364.957 276.912C343.131 276.912 325.435 276.739 325.435 276.536C325.435 276.333 343.131 276.159 364.957 276.159C386.783 276.159 404.479 276.318 404.479 276.536Z" fill="#FAFAFA"/>
<path id="Vector_159" d="M378.406 267.478C373.869 267.829 369.317 267.93 364.769 267.782C360.223 267.887 355.674 267.732 351.146 267.318C355.678 266.977 360.226 266.88 364.769 267.028C369.319 266.932 373.872 267.082 378.406 267.478Z" fill="#263238"/>
<path id="Vector_160" d="M413.073 292.507C413.073 292.71 391.595 292.883 365.088 292.883C338.58 292.883 317.088 292.71 317.088 292.507C317.088 292.304 338.58 292.115 365.088 292.115C391.595 292.115 413.073 292.289 413.073 292.507Z" fill="#FAFAFA"/>
<path id="Vector_161" d="M416.044 308.869C416.044 309.086 392.856 309.246 364.175 309.246C335.493 309.246 312.305 309.086 312.305 308.869C312.305 308.652 335.493 308.492 364.175 308.492C392.856 308.492 416.044 308.71 416.044 308.869Z" fill="#FAFAFA"/>
<path id="Vector_162" d="M417.899 324.883C417.899 325.086 393.392 325.26 363.16 325.26C332.928 325.26 308.421 325.086 308.421 324.883C308.421 324.681 332.928 324.507 363.16 324.507C393.392 324.507 417.899 324.666 417.899 324.883Z" fill="#FAFAFA"/>
<path id="Vector_163" d="M425.305 350.898C425.305 351.101 398.073 351.275 364.435 351.275C330.798 351.275 303.566 351.101 303.566 350.898C303.566 350.695 330.798 350.521 364.435 350.521C398.073 350.521 425.305 350.666 425.305 350.898Z" fill="#FAFAFA"/>
<path id="Vector_164" d="M407.841 369.115C407.841 369.318 389.87 369.492 367.711 369.492C345.551 369.492 327.58 369.318 327.58 369.115C327.58 368.912 345.537 368.739 367.711 368.739C389.885 368.739 407.841 368.898 407.841 369.115Z" fill="#FAFAFA"/>
<path id="Vector_165" d="M389.262 327.362L388.406 326.724C386.219 325.081 383.711 323.914 381.046 323.298C378.38 322.681 375.615 322.629 372.928 323.144C368.504 323.992 364.364 325.935 360.885 328.797L354.146 334.347L361.305 347.188L366.189 340.362C366.189 340.362 370.74 346.536 371.551 345.883C372.273 345.114 372.874 344.239 373.334 343.289L370.088 338.739L377.885 340.362L389.262 335.159L384.377 328.985L389.262 330.608V327.362Z" fill="#FFBE9D"/>
<path id="Vector_166" d="M377.247 326.188L352.218 356.492L354.146 358.565L394.754 352.376L414.899 322.072L413.03 320.391L377.247 326.188Z" fill="#263238"/>
<path id="Vector_167" d="M403.798 334.188C403.018 334.185 402.255 334.419 401.611 334.859C400.966 335.299 400.471 335.924 400.189 336.652C399.75 338.165 398.897 339.525 397.725 340.579C395.914 341.565 392.798 342.347 391.16 341.55C389.522 340.753 382.957 334.84 381.812 335.492C380.667 336.144 379.682 337.623 380.827 338.941C381.972 340.26 388.073 344.188 386.899 345.507C385.725 346.826 372.943 341.043 370.957 341.55C368.972 342.057 367.841 343.26 368.986 344.057C370.131 344.855 378.827 348.13 379.319 349.275C379.319 349.275 366.189 345.826 365.696 346.652C365.203 347.478 364.392 348.782 365.696 349.275C367.001 349.768 378.334 352.724 379.319 353.217C380.947 353.885 382.643 354.371 384.377 354.666C386.168 355.131 387.934 355.687 389.667 356.333C392.322 357.262 395.225 357.185 397.827 356.115L399.16 355.579C400.169 355.166 401.022 354.448 401.602 353.526C402.182 352.603 402.458 351.522 402.392 350.434L402.131 345.97L403.58 342.275L403.798 334.188Z" fill="#FFBE9D"/>
<path id="Vector_168" d="M414.972 322.347C414.729 322.441 414.476 322.504 414.218 322.536L412.044 322.912L404.044 324.202L392.16 326.014L385.146 327.072C382.669 327.344 380.316 328.297 378.348 329.826C376.543 331.581 374.89 333.487 373.406 335.521C371.856 337.434 370.377 339.289 368.957 341.057L361.406 350.405L356.262 356.695L354.812 358.376C354.655 358.58 354.475 358.764 354.276 358.927C354.276 358.927 354.392 358.695 354.696 358.289L356.015 356.521L360.972 350.115L368.406 340.652L372.754 335.086C374.267 333.014 375.955 331.075 377.798 329.289C379.865 327.681 382.339 326.677 384.943 326.391L391.972 325.376L403.885 323.71L411.928 322.652L414.117 322.405C414.396 322.338 414.685 322.319 414.972 322.347Z" fill="#455A64"/>
<path id="Vector_169" d="M395.972 328.985C395.538 329.21 395.153 329.521 394.841 329.898C394.7 330.097 394.623 330.335 394.623 330.579C394.623 330.823 394.7 331.061 394.841 331.26C395.074 331.464 395.373 331.577 395.682 331.577C395.991 331.577 396.29 331.464 396.522 331.26C396.85 331.028 397.077 330.682 397.16 330.289C397.203 330.095 397.194 329.893 397.136 329.702C397.077 329.512 396.971 329.34 396.827 329.202C396.669 329.08 396.475 329.014 396.276 329.014C396.077 329.014 395.883 329.08 395.725 329.202" fill="#FAFAFA"/>
</g>
<g id="speech-bubble">
<path id="Vector_170" d="M277.421 260.84L270.059 247.797C274.612 240.402 276.235 231.572 274.608 223.042C272.981 214.511 268.222 206.898 261.266 201.699C254.311 196.5 245.662 194.09 237.02 194.944C228.378 195.799 220.368 199.854 214.565 206.315C208.762 212.775 205.585 221.172 205.66 229.856C205.734 238.54 209.054 246.881 214.967 253.242C220.88 259.602 228.958 263.52 237.613 264.226C246.268 264.932 254.874 262.375 261.74 257.057L277.421 260.84Z" fill="#6B26D9"/>
<path id="Vector_171" d="M228.435 225.478C228.435 222.347 230.319 220.362 233.001 220.362C235.682 220.362 237.537 222.318 237.537 225.478C237.537 228.637 235.667 230.608 233.001 230.608C230.334 230.608 228.435 228.623 228.435 225.478ZM234.914 225.478C234.914 223.492 234.146 222.579 233.001 222.579C231.856 222.579 231.088 223.565 231.088 225.478C231.088 227.391 231.87 228.376 233.001 228.376C234.131 228.376 234.914 227.478 234.914 225.478ZM243.928 220.565H247.044L234.522 239.159H231.406L243.928 220.565ZM240.914 234.246C240.914 231.115 242.798 229.115 245.45 229.115C248.102 229.115 250.001 231.115 250.001 234.246C250.001 237.376 248.117 239.376 245.45 239.376C242.783 239.376 240.914 237.376 240.914 234.246ZM247.363 234.246C247.363 232.275 246.595 231.347 245.45 231.347C244.305 231.347 243.537 232.304 243.537 234.246C243.537 236.188 244.319 237.144 245.45 237.144C246.58 237.144 247.363 236.217 247.363 234.246Z" fill="white"/>
</g>
</g>
</svg>
